<svg version="1.2" xmlns="http://www.w3.org/2000/svg" viewBox="0 0 800 500" width="50" height="50">
	<title>ar-svg</title>
	<style>
		.s0 { fill: #f6b40e;stroke: #85340a;stroke-width: 1.1 } 
		.s1 { fill: #85340a } 
		.s2 { fill: #f6b40e;stroke: #85340a;stroke-width: 1.5 } 
		.s3 { fill: #843511 } 
	</style>
	<g id="c">
		<path id="a" class="s0" d="m396.8 251.3l28.5 62c0 0 0.5 1.2 1.3 0.9 0.8-0.4 0.3-1.6 0.3-1.6l-23.7-63.9m-0.7 24.1c-0.4 9.4 5.4 14.6 4.7 23-0.8 8.5 3.8 13.2 4.9 16.5 1.1 3.3-1.1 5.2-0.2 5.7 1 0.5 3.1-2.1 2.4-6.8-0.7-4.6-4.2-6-3.4-16.3 0.8-10.3-4.2-12.7-3-22.1"/>
		<path id="a" class="s0" d="m396.6 250l2.5 68.2c0 0 0 1.2 0.9 1.2 0.9 0 0.9-1.2 0.9-1.2l2.5-68.2m-9.8 22c-4 8.6-0.6 15.6-4.5 23.1-3.9 7.5-1.5 13.7-1.8 17.1-0.2 3.4-3 4.4-2.3 5.2 0.7 0.8 3.6-0.8 4.8-5.4 1.1-4.5-1.6-7.2 3.1-16.3 4.7-9.2 1-13.4 5.7-21.6"/>
		<path id="a" class="s0" d="m396.8 248.7l-23.7 63.9c0 0-0.5 1.2 0.3 1.6 0.8 0.3 1.3-0.9 1.3-0.9l28.5-62m-17.6 16.6c-6.9 6.4-6.5 14.2-12.9 19.6-6.5 5.4-6.6 12-8.2 15.1-1.5 3.1-4.5 2.9-4.2 3.9 0.4 1 3.7 0.7 6.5-3.1 2.8-3.8 1.3-7.3 9.2-13.9 7.8-6.7 6-12 13.5-17.7"/>
		<path id="a" class="s0" d="m397.6 247.6l-46.4 50c0 0-0.9 0.9-0.3 1.5 0.6 0.6 1.5-0.3 1.5-0.3l50-46.4m-22.5 8.6c-8.9 3.3-11.4 10.6-19.5 13.2-8.1 2.5-10.7 8.6-13.3 10.8-2.6 2.3-5.3 1-5.4 2 0 1.1 3.2 2.1 7.2-0.4 4-2.4 4-6.2 13.8-9.3 9.8-3.2 10.1-8.8 19.2-11.2"/>
		<path id="b" class="s1" d="m404.3 274.4c0.5 9.1 5.6 13.1 4.6 21.3 2.2-6.5-3.1-11.6-2.8-21.2m-7.7-23.8l19.5 42.6-16.3-43.9"/>
		<path id="b" class="s1" d="m394.6 274.2c-3 8.5 0.2 14.2-3.9 21.4 4.6-5.1 1.6-11.9 5.5-20.6m2.1-24.9l1.7 46.8 1.7-46.8"/>
		<path id="b" class="s1" d="m385.8 270.3c-6.1 6.7-5.3 13.2-11.8 18.3 6.1-3 5.9-10.4 13-17m11.4-22.2l-16.4 43.9 19.5-42.6"/>
		<path id="b" class="s1" d="m379.1 263.3c-8.2 3.9-9.9 10.2-17.9 12.4 6.8-0.4 9.5-7.3 18.5-10.7m19-16.2l-31.9 34.3 34.3-31.9"/>
	</g>
	<g id="c">
		<path id="a" class="s0" d="m398.7 246.8l-62 28.5c0 0-1.2 0.5-0.9 1.3 0.4 0.8 1.6 0.3 1.6 0.3l63.9-23.7m-24.1-0.7c-9.4-0.4-14.6 5.4-23 4.7-8.5-0.8-13.2 3.8-16.5 4.9-3.3 1.1-5.2-1.1-5.7-0.2-0.5 1 2.1 3.1 6.8 2.4 4.6-0.7 6-4.2 16.3-3.4 10.3 0.8 12.7-4.2 22.1-3"/>
		<path id="a" class="s0" d="m400 246.6l-68.2 2.5c0 0-1.2 0-1.2 0.9 0 0.9 1.2 0.9 1.2 0.9l68.2 2.5m-22-9.8c-8.6-4-15.6-0.6-23.1-4.5-7.5-3.9-13.7-1.5-17.1-1.8-3.4-0.2-4.4-3-5.2-2.3-0.8 0.7 0.8 3.6 5.4 4.8 4.5 1.1 7.2-1.6 16.3 3.1 9.2 4.7 13.4 1 21.6 5.7"/>
		<path id="a" class="s0" d="m401.3 246.8l-63.9-23.7c0 0-1.2-0.5-1.6 0.3-0.3 0.8 0.9 1.3 0.9 1.3l62 28.5m-16.6-17.6c-6.4-6.9-14.2-6.5-19.6-12.9-5.4-6.5-12-6.6-15.1-8.2-3.1-1.5-2.9-4.5-3.9-4.2-1 0.4-0.7 3.7 3.1 6.5 3.8 2.8 7.3 1.3 13.9 9.2 6.7 7.8 12 6 17.7 13.5"/>
		<path id="a" class="s0" d="m402.4 247.6l-50-46.4c0 0-0.9-0.9-1.5-0.3-0.6 0.6 0.3 1.5 0.3 1.5l46.4 50m-8.6-22.5c-3.3-8.9-10.6-11.4-13.2-19.5-2.5-8.1-8.6-10.7-10.8-13.3-2.3-2.6-1-5.3-2-5.4-1.1 0-2.1 3.2 0.4 7.2 2.4 4 6.2 4 9.3 13.8 3.2 9.8 8.8 10.1 11.2 19.2"/>
		<path id="b" class="s1" d="m375.6 254.3c-9.1 0.5-13.1 5.6-21.3 4.6 6.5 2.2 11.6-3.1 21.2-2.8m23.8-7.7l-42.6 19.5 43.9-16.3"/>
		<path id="b" class="s1" d="m375.8 244.6c-8.5-3-14.2 0.2-21.4-3.9 5.1 4.6 11.9 1.6 20.6 5.5m24.9 2.1l-46.8 1.7 46.8 1.7"/>
		<path id="b" class="s1" d="m379.7 235.8c-6.7-6.1-13.2-5.3-18.3-11.8 3 6.1 10.4 5.9 17 13m22.2 11.4l-43.9-16.4 42.6 19.5"/>
		<path id="b" class="s1" d="m386.7 229.1c-3.9-8.2-10.2-9.9-12.4-17.9 0.4 6.8 7.3 9.5 10.7 18.5m16.2 19l-34.3-31.9 31.9 34.3"/>
	</g>
	<g id="c">
		<path id="a" class="s0" d="m403.2 248.7l-28.5-62c0 0-0.5-1.2-1.3-0.9-0.8 0.4-0.3 1.6-0.3 1.6l23.7 63.9m0.7-24.1c0.4-9.4-5.4-14.6-4.7-23 0.8-8.5-3.8-13.2-4.9-16.5-1.1-3.3 1.1-5.2 0.2-5.7-1-0.5-3.1 2.1-2.4 6.8 0.7 4.6 4.2 6 3.4 16.3-0.8 10.3 4.2 12.7 3 22.1"/>
		<path id="a" class="s0" d="m403.4 250l-2.5-68.2c0 0 0-1.2-0.9-1.2-0.9 0-0.9 1.2-0.9 1.2l-2.5 68.2m9.8-22c4-8.6 0.6-15.6 4.5-23.1 3.9-7.5 1.5-13.7 1.8-17.1 0.2-3.4 3-4.4 2.3-5.2-0.7-0.8-3.6 0.8-4.8 5.4-1.1 4.5 1.6 7.2-3.1 16.3-4.7 9.2-1 13.4-5.7 21.6"/>
		<path id="a" class="s0" d="m403.2 251.3l23.7-63.9c0 0 0.5-1.2-0.3-1.6-0.8-0.3-1.3 0.9-1.3 0.9l-28.5 62m17.6-16.6c6.9-6.4 6.5-14.2 12.9-19.6 6.5-5.4 6.6-12 8.2-15.1 1.5-3.1 4.5-2.9 4.2-3.9-0.4-1-3.7-0.7-6.5 3.1-2.8 3.8-1.3 7.3-9.2 13.9-7.8 6.7-6 12-13.5 17.7"/>
		<path id="a" class="s0" d="m402.4 252.4l46.4-50c0 0 0.9-0.9 0.3-1.5-0.6-0.6-1.5 0.3-1.5 0.3l-50 46.4m22.5-8.6c8.9-3.3 11.4-10.6 19.5-13.2 8.1-2.5 10.7-8.6 13.3-10.8 2.6-2.3 5.3-1 5.4-2 0-1.1-3.2-2.1-7.2 0.4-4 2.4-4 6.2-13.8 9.3-9.8 3.2-10.1 8.8-19.2 11.2"/>
		<path id="b" class="s1" d="m395.7 225.6c-0.5-9.1-5.6-13.1-4.6-21.3-2.2 6.5 3.1 11.6 2.8 21.2m7.7 23.8l-19.5-42.6 16.3 43.9"/>
		<path id="b" class="s1" d="m405.4 225.8c3-8.5-0.2-14.2 3.9-21.4-4.6 5.1-1.6 11.9-5.5 20.6m-2.1 24.9l-1.7-46.8-1.7 46.8"/>
		<path id="b" class="s1" d="m414.2 229.7c6.1-6.7 5.3-13.2 11.8-18.3-6.1 3-5.9 10.4-13 17m-11.4 22.2l16.4-43.9-19.5 42.6"/>
		<path id="b" class="s1" d="m420.9 236.7c8.2-3.9 9.9-10.2 17.9-12.4-6.8 0.4-9.5 7.3-18.5 10.7m-19 16.2l31.9-34.3-34.3 31.9"/>
	</g>
	<g id="c">
		<path id="a" class="s0" d="m401.3 253.2l62-28.5c0 0 1.2-0.5 0.9-1.3-0.4-0.8-1.6-0.3-1.6-0.3l-63.9 23.7m24.1 0.7c9.4 0.4 14.6-5.4 23-4.7 8.5 0.8 13.2-3.8 16.5-4.9 3.3-1.1 5.2 1.1 5.7 0.2 0.5-1-2.1-3.1-6.8-2.4-4.6 0.7-6 4.2-16.3 3.4-10.3-0.8-12.7 4.2-22.1 3"/>
		<path id="a" class="s0" d="m400 253.4l68.2-2.5c0 0 1.2 0 1.2-0.9 0-0.9-1.2-0.9-1.2-0.9l-68.2-2.5m22 9.8c8.6 4 15.6 0.6 23.1 4.5 7.5 3.9 13.7 1.5 17.1 1.8 3.4 0.2 4.4 3 5.2 2.3 0.8-0.7-0.8-3.6-5.4-4.8-4.5-1.1-7.2 1.6-16.3-3.1-9.2-4.7-13.4-1-21.6-5.7"/>
		<path id="a" class="s0" d="m398.7 253.2l63.9 23.7c0 0 1.2 0.5 1.6-0.3 0.3-0.8-0.9-1.3-0.9-1.3l-62-28.5m16.6 17.6c6.4 6.9 14.2 6.5 19.6 12.9 5.4 6.5 12 6.6 15.1 8.2 3.1 1.5 2.9 4.5 3.9 4.2 1-0.4 0.7-3.7-3.1-6.5-3.8-2.8-7.3-1.3-13.9-9.2-6.7-7.8-12-6-17.7-13.5"/>
		<path id="a" class="s0" d="m397.6 252.4l50 46.4c0 0 0.9 0.9 1.5 0.3 0.6-0.6-0.3-1.5-0.3-1.5l-46.4-50m8.6 22.5c3.3 8.9 10.6 11.4 13.2 19.5 2.5 8.1 8.6 10.7 10.8 13.3 2.3 2.6 1 5.3 2 5.4 1.1 0 2.1-3.2-0.4-7.2-2.4-4-6.2-4-9.3-13.8-3.2-9.8-8.8-10.1-11.2-19.2"/>
		<path id="b" class="s1" d="m424.4 245.7c9.1-0.5 13.1-5.6 21.3-4.6-6.5-2.2-11.6 3.1-21.2 2.8m-23.8 7.7l42.6-19.5-43.9 16.3"/>
		<path id="b" class="s1" d="m424.2 255.4c8.5 3 14.2-0.2 21.4 3.9-5.1-4.6-11.9-1.6-20.6-5.5m-24.9-2.1l46.8-1.7-46.8-1.7"/>
		<path id="b" class="s1" d="m420.3 264.2c6.7 6.1 13.2 5.3 18.3 11.8-3-6.1-10.4-5.9-17-13m-22.2-11.4l43.9 16.4-42.6-19.5"/>
		<path id="b" class="s1" d="m413.3 270.9c3.9 8.2 10.2 9.9 12.4 17.9-0.4-6.8-7.3-9.5-10.7-18.5m-16.2-19l34.3 31.9-31.9-34.3"/>
	</g>
	<path id="Layer" class="s2" d="m400 277.8c-15.4 0-27.8-12.4-27.8-27.8 0-15.4 12.4-27.8 27.8-27.8 15.4 0 27.8 12.4 27.8 27.8 0 15.4-12.4 27.8-27.8 27.8z"/>
	<path id="h" fill-rule="evenodd" class="s3" d="m410.9 244.2q0.8 0.2 1.4 0.5 0.7 0.3 1.3 0.7 0.6 0.4 1.2 1c-3.3 2.3-8 2.1-10.1 0.2 1.1-1.7 2.9-2.5 4.8-2.5q0.7 0 1.4 0.1zm-5.3 2.4c2.1 1.7 5.5 1.9 7.7-0.4-0.3-0.9-2-1.7-3.9-1.7-1.4 0-2.9 0.6-3.8 2.1z"/>
	<path id="d" class="s1" d="m409.8 242.7c-2.7 0-3.4 0.7-4.7 1.8-1.3 1-1.9 0.8-2.1 1-0.2 0.2 0 0.9 0.4 0.7 0.4-0.3 1.3-0.7 2.6-1.7 1.3-1.1 2.5-1.1 3.8-1.1 3.9 0 6 3.2 6.4 3 0.5-0.2-2.1-3.7-6.4-3.7z"/>
	<path id="e" class="s1" d="m417.5 244c-4.9-4.3-11.1-4.9-14.5-1.7q-1.3 1.7-1.6 3.6c-0.4 2.4 0.3 5 2.2 7.7-0.2 0-0.6 0.2-0.8 0.5-1.7-3.3-2.3-6.6-1.8-9.8q0.1-0.3 0.2-0.6 0-0.3 0.1-0.6 0.1-0.3 0.2-0.6 0.1-0.3 0.2-0.6c4.7-3.9 11.1-4.3 15.8 2.1z"/>
	<path id="f" class="s1" d="m409.4 248.1c-1.1 0-1.9-0.9-1.9-1.9 0-1.1 0.8-2 1.9-2 1.1 0 1.9 0.9 1.9 2 0 1-0.8 1.9-1.9 1.9z"/>
	<path id="g" class="s1" d="m415 247.4c-3.7 2.8-7.3 2.6-9.4 1.3-2.2-1.3-2.2-1.7-1.8-1.7 0.5 0 0.9 0.4 2.6 1.3 1.7 0.8 4.3 0.8 8.6-0.9z"/>
	<path id="Layer" class="s1" d="m395.8 253.8c-1 0.2-1.6 1-1.6 1.9 0 1.1 0.9 2 1.9 2q0.3 0 0.5-0.1 0.2-0.1 0.4-0.2 0.2-0.1 0.4-0.2 0.2-0.2 0.3-0.4c0.7 0.6 1.8 0.7 2.3 0.7 0.1 0 0.2 0 0.2 0 0.6 0 1.6-0.1 2.4-0.7 0.3 0.6 0.9 0.9 1.5 0.9 1.1 0 2-0.9 2-2 0-0.9-0.7-1.7-1.6-1.9 0.5 0.2 0.8 0.7 0.8 1.3q0 0.2-0.1 0.4-0.1 0.3-0.2 0.5-0.2 0.1-0.4 0.2-0.3 0.1-0.5 0.1c-0.7 0-1.3-0.5-1.3-1.2-0.2 0.4-1.1 1.7-2.7 1.7-1.6 0-2.4-1.3-2.6-1.7-0.1 0.7-0.6 1.2-1.3 1.2q-0.3 0-0.5-0.1-0.2-0.1-0.4-0.2-0.2-0.2-0.3-0.5-0.1-0.2-0.1-0.4c0-0.6 0.3-1.1 0.8-1.3zm2.1 5.7c-2.1 0-2.9 2-4.9 3.2 1.1-0.4 1.9-1.2 3.4-2.1 1.5-0.8 2.8 0.2 3.7 0.2 0.8 0 2.1-1 3.6-0.2 1.5 0.9 2.4 1.7 3.5 2.1-2-1.2-2.8-3.2-5-3.2-0.4 0-1.3 0.3-2.1 0.7-0.9-0.4-1.7-0.7-2.2-0.7z"/>
	<path id="Layer" class="s1" d="m397.1 262.1c-0.8 0-1.9 0.2-3.5 0.6 3.8-0.8 4.7 0.5 6.4 0.5 1.7 0 2.6-1.3 6.4-0.5-4.3-1.2-5.1-0.4-6.4-0.4-0.8 0-1.5-0.3-2.9-0.2z"/>
	<path id="Layer" class="s1" d="m393.8 262.7q-0.4 0-0.9 0.1c4.5 0.4 2.4 3 7.1 3 4.7 0 2.6-2.6 7.1-3-4.7-0.5-3.3 2.3-7.1 2.3-3.6 0-2.5-2.4-6.3-2.4zm10.2 7q-0.1-0.8-0.3-1.5-0.3-0.7-0.9-1.3-0.5-0.5-1.2-0.8-0.7-0.3-1.5-0.3-0.8 0-1.5 0.3-0.7 0.3-1.2 0.8-0.6 0.6-0.8 1.3-0.3 0.7-0.3 1.5 0.1-0.7 0.5-1.3 0.3-0.5 0.9-0.9 0.5-0.4 1.1-0.7 0.6-0.2 1.3-0.2 0.7 0 1.3 0.2 0.6 0.3 1.2 0.7 0.5 0.4 0.8 0.9 0.4 0.6 0.6 1.3z"/>
	<path id="e" class="s1" d="m382.7 244c4.9-4.3 11.1-4.9 14.6-1.7q1.2 1.7 1.6 3.6c0.4 2.4-0.4 5-2.3 7.7 0.2 0 0.7 0.2 0.9 0.5 1.7-3.3 2.3-6.6 1.7-9.8q0-0.3-0.1-0.6-0.1-0.3-0.2-0.6-0.1-0.3-0.1-0.6-0.1-0.3-0.3-0.6c-4.7-3.9-11.1-4.3-15.8 2.1z"/>
	<path id="d" class="s1" d="m390.4 242.7c2.8 0 3.4 0.7 4.7 1.8 1.3 1 1.9 0.8 2.2 1 0.2 0.2 0 0.9-0.5 0.7-0.4-0.3-1.3-0.7-2.5-1.7-1.3-1.1-2.6-1.1-3.9-1.1-3.8 0-6 3.2-6.4 3-0.4-0.2 2.1-3.7 6.4-3.7z"/>
	<path id="h" fill-rule="evenodd" class="s3" d="m391.8 244.2q0.7 0.2 1.4 0.5 0.6 0.3 1.3 0.7 0.6 0.4 1.1 1c-3.2 2.3-8 2.1-10.1 0.2 1.1-1.7 2.9-2.5 4.8-2.5q0.7 0 1.5 0.1zm-5.4 2.4c2.1 1.7 5.5 1.9 7.7-0.4-0.3-0.9-2-1.7-3.8-1.7-1.5 0-3 0.6-3.9 2.1z"/>
	<path id="f" class="s1" d="m390.5 248.1c-1 0-1.9-0.9-1.9-1.9 0-1.1 0.9-2 1.9-2 1.1 0 2 0.9 2 2 0 1-0.9 1.9-2 1.9z"/>
	<path id="g" class="s1" d="m385.3 247.4c3.6 2.8 7.3 2.6 9.4 1.3 2.1-1.3 2.1-1.7 1.7-1.7-0.4 0-0.9 0.4-2.6 1.3-1.7 0.8-4.2 0.8-8.5-0.9z"/>
</svg>